<svg width="19" height="23" viewBox="0 0 19 23" fill="none" xmlns="http://www.w3.org/2000/svg">
<path fill-rule="evenodd"  d="M18.3484 16.8544C18.0099 17.978 17.4761 19.1015 16.7471 20.225C15.6274 21.9866 14.5122 22.8675 13.4012 22.8675C12.9759 22.8675 12.3684 22.7236 11.5786 22.436C10.8322 22.1484 10.1769 22.0046 9.61274 22.0046C9.08331 22.0046 8.46708 22.1529 7.76406 22.4495C7.06105 22.7551 6.48822 22.9079 6.04558 22.9079C4.72633 22.9079 3.42011 21.7439 2.1269 19.416C0.851058 17.0702 0.213135 14.8097 0.213135 12.6345C0.213135 10.5853 0.703511 8.9045 1.68426 7.59224C2.65634 6.29796 3.88879 5.65082 5.38161 5.65082C6.00652 5.65082 6.77463 5.78564 7.68595 6.05528C8.58859 6.32492 9.18746 6.45975 9.48255 6.45975C9.87311 6.45975 10.4937 6.30695 11.3442 6.00135C12.2295 5.69576 12.9803 5.54296 13.5965 5.54296C14.6293 5.54296 15.5537 5.83507 16.3695 6.4193C16.8208 6.74287 17.2722 7.19227 17.7235 7.76751C17.0378 8.36971 16.5431 8.90001 16.2393 9.3584C15.6752 10.2033 15.3931 11.1335 15.3931 12.1492C15.3931 13.2637 15.6925 14.2659 16.2914 15.1557C16.8903 16.0455 17.5759 16.6118 18.3484 16.8544ZM13.4533 1.03994C13.4533 1.58821 13.3274 2.1994 13.0758 2.87351C12.8154 3.54761 12.4118 4.16779 11.865 4.73404C11.3963 5.21939 10.9276 5.54296 10.459 5.70475C10.1378 5.80362 9.68651 5.88001 9.105 5.93394C9.13104 4.59472 9.46953 3.43976 10.1205 2.46904C10.7627 1.50732 11.8476 0.842205 13.3752 0.473694C13.3839 0.500658 13.3947 0.550092 13.4077 0.621997C13.4207 0.693901 13.4316 0.743336 13.4403 0.7703C13.4403 0.806252 13.4424 0.851193 13.4468 0.905121C13.4511 0.959049 13.4533 1.00399 13.4533 1.03994Z" fill="white"/>
</svg>
