<svg width="21" height="23" viewBox="0 0 21 23" fill="none" xmlns="http://www.w3.org/2000/svg">
<path fill-rule="evenodd"  d="M15.5392 8.33211L2.20665 1.08987C1.82861 0.885537 1.47994 0.838004 1.19751 0.925044L12.1181 11.7125L15.5392 8.33211Z" fill="url(#paint0_linear_1804_6138)"/>
<path fill-rule="evenodd" d="M15.5565 15.1095L20.1079 12.6372C21.0308 12.1341 21.0308 11.3155 20.1079 10.8137L15.5396 8.33209L12.1179 11.7125L15.5565 15.1095Z" fill="url(#paint1_linear_1804_6138)"/>
<path fill-rule="evenodd"  d="M1.19678 0.925049C0.791247 1.05036 0.528809 1.45593 0.528809 2.06954L0.531308 21.3814C0.531308 21.9882 0.785624 22.3876 1.17928 22.5209L12.118 11.7143L1.19678 0.925049Z" fill="url(#paint2_linear_1804_6138)"/>
<path fill-rule="evenodd"  d="M1.1792 22.5209C1.46351 22.616 1.81905 22.5716 2.20646 22.3617L15.5546 15.1095L12.1179 11.7144L1.1792 22.5209Z" fill="url(#paint3_linear_1804_6138)"/>
<mask id="mask0_1804_6138" style="mask-type:alpha" maskUnits="userSpaceOnUse" x="1" y="11" width="15" height="12">
<path fill-rule="evenodd"  d="M1.1792 22.5209C1.46351 22.616 1.81905 22.5716 2.20646 22.3617L15.5546 15.1095L12.1179 11.7144L1.1792 22.5209Z" fill="white"/>
</mask>
<g mask="url(#mask0_1804_6138)">
</g>
<defs>
<linearGradient id="paint0_linear_1804_6138" x1="-5.27519" y1="-0.211629" x2="-0.934257" y2="14.5599" gradientUnits="userSpaceOnUse">
<stop stop-color="#19A3B4"/>
<stop offset="0.348168" stop-color="#5BC3AF"/>
<stop offset="0.922336" stop-color="#C8F7A6"/>
<stop offset="1" stop-color="#D7FEA5"/>
</linearGradient>
<linearGradient id="paint1_linear_1804_6138" x1="0.923334" y1="3.61838" x2="5.92052" y2="19.9529" gradientUnits="userSpaceOnUse">
<stop stop-color="#FC227C"/>
<stop offset="1" stop-color="#FEEB7B"/>
</linearGradient>
<linearGradient id="paint2_linear_1804_6138" x1="-1.87049" y1="-0.110549" x2="5.46132" y2="19.076" gradientUnits="userSpaceOnUse">
<stop stop-color="#0E4DA0"/>
<stop offset="1" stop-color="#6BFED4"/>
</linearGradient>
<linearGradient id="paint3_linear_1804_6138" x1="12.2946" y1="6.64792" x2="-1.4089" y2="22.4341" gradientUnits="userSpaceOnUse">
<stop stop-color="#FC472E"/>
<stop offset="0.00331892" stop-color="#FC472F"/>
<stop offset="1" stop-color="#893CD8"/>
</linearGradient>
</defs>
</svg>
