<svg width="6" height="11" viewBox="0 0 6 11" fill="none" xmlns="http://www.w3.org/2000/svg">
<mask id="mask0_1804_2584" style="mask-type:alpha" maskUnits="userSpaceOnUse" x="0" y="0" width="6" height="11">
<path fill-rule="evenodd" clip-rule="evenodd" d="M5.75 10.75H0.25L0.25 0.75H5.75L5.75 10.75Z" fill="white"/>
</mask>
<g mask="url(#mask0_1804_2584)">
<path fill-rule="evenodd" clip-rule="evenodd" d="M5.03727 5.75027L0.336745 10.2664C0.221085 10.3775 0.221085 10.5556 0.336745 10.6667C0.452297 10.7778 0.63773 10.7778 0.753281 10.6667L5.66332 5.94928C5.77889 5.83826 5.77889 5.6601 5.66332 5.54909L0.753281 0.833801C0.696623 0.779261 0.620253 0.75 0.546145 0.75C0.47201 0.75 0.395639 0.777218 0.338872 0.833801C0.223321 0.94482 0.223321 1.12298 0.338872 1.234L5.03727 5.75027Z" fill="black" stroke="#4E72CA"/>
</g>
</svg>
