<svg width="11" height="6" viewBox="0 0 11 6" fill="none" xmlns="http://www.w3.org/2000/svg">
<mask id="mask0_1804_2645" style="mask-type:alpha" maskUnits="userSpaceOnUse" x="0" y="0" width="11" height="6">
<path fill-rule="evenodd" clip-rule="evenodd" d="M0.818176 5.68182L0.818176 0.181824L10.8182 0.181824L10.8182 5.68182L0.818176 5.68182Z" fill="white"/>
</mask>
<g mask="url(#mask0_1804_2645)">
<path fill-rule="evenodd" clip-rule="evenodd" d="M5.8179 4.9691L1.30176 0.268569C1.19064 0.152908 1.01258 0.152908 0.90146 0.268569C0.790415 0.38412 0.790415 0.569553 0.90146 0.685105L5.61889 5.59514C5.72991 5.71072 5.90807 5.71072 6.01909 5.59514L10.7344 0.685105C10.7889 0.628447 10.8182 0.552076 10.8182 0.477969C10.8182 0.403834 10.791 0.327463 10.7344 0.270696C10.6234 0.155144 10.4452 0.155144 10.3342 0.270696L5.8179 4.9691Z" fill="black" />
</g>
</svg>
